<svg viewBox="55.529 79.275 899.038 898.45" xmlns="http://www.w3.org/2000/svg" xmlns:xlink="http://www.w3.org/1999/xlink" overflow="visible">
    <defs>
        <ellipse id="mastercompsastronaut-path-1" cx="37.347" cy="36.436" rx="37.007" ry="36.38"/>
        <ellipse id="mastercompsastronaut-path-5" cx="92.479" cy="89.355" rx="91.636" ry="89.218"/>
        <polygon id="mastercompsastronaut-path-3" points="0 838 712.461 838 712.461 0.099 0 0.099"/>
    </defs>
    <g id="Master/Comps/Astronaut" stroke="none" stroke-width="1" fill="none" fill-rule="evenodd">
        <g id="Small Elements" transform="translate(102.500000, 696.500000) scale(0.5111111111111111 0.5111111111111111)">
            <g id="Small Elements/Levels" stroke="none" stroke-width="1" fill="none" fill-rule="evenodd">
                <g id="Bars" transform="translate(20.000000, 67.000000)">
                    <g id="bar" transform="translate(2.000000, 120.000000)">
                        <rect id="Range" fill="#EDEDEE" x="0" y="0" width="228" height="16" rx="8"/>
                        <rect id="Range" fill="#BE6FFB" x="0" y="0" width="228" height="16" rx="8"/>
                    </g>
                    <g id="bar" transform="translate(0.000000, 80.000000)">
                        <rect id="Range" fill="#EDEDEE" x="0" y="0" width="228" height="16" rx="8"/>
                        <rect id="Range" fill="#BE6FFB" x="0" y="0" width="170.776" height="16" rx="8"/>
                    </g>
                    <g id="bar" transform="translate(2.000000, 0.000000)">
                        <rect id="Range" fill="#EDEDEE" x="0" y="0" width="228" height="16" rx="8"/>
                        <rect id="Range" fill="#CCA4FF" x="0" y="0" width="57.224" height="16" rx="8"/>
                    </g>
                    <g id="bar" transform="translate(0.000000, 40.000000)">
                        <rect id="Range" fill="#EDEDEE" x="0" y="0" width="228" height="16" rx="8"/>
                        <rect id="Range" fill="#CCA4FF" x="0" y="0" width="113.553" height="16" rx="8"/>
                    </g>
                </g>
            </g>
        </g>
        <g id="Space/Space Blob" transform="translate(0.000000, 133.000000) scale(1.5854126679462572 1.5808383233532934)">
            <g id="Space/Space Blob/5" stroke="none" stroke-width="1" fill="none" fill-rule="evenodd">
                <path d="M403.117726,86.0586906 C450.276215,133.788339 488.98052,199.713267 479.997951,261.023451 C471.015382,322.465484 414.478035,379.292772 339.843452,425.176522 C265.340967,471.060272 172.873342,505.868635 114.750836,475.675017 C56.4962326,445.4814 32.5867469,350.022104 40.9088331,278.427632 C49.3630159,206.70131 90.0487705,158.707962 129.281462,112.824212 C168.646251,66.9404613 206.42588,23.1663089 253.320175,16.0464166 C300.082374,8.92652436 355.827142,38.4608923 403.117726,86.0586906 Z" id="blobs-burgers" fill="#250762"/>
            </g>
        </g>
        <g id="Space/Stars" transform="translate(107.000000, 236.000000) scale(1.8601823708206686 1.8630573248407643)">
            <g id="Space/Stars/4" stroke="none" stroke-width="1" fill="none" fill-rule="evenodd">
                <circle id="Oval" fill="#FFF" cx="79.5" cy="34.5" r="2.5"/>
                <circle id="Oval" fill="#FFF" cx="253" cy="162" r="4"/>
                <circle id="Oval" fill="#FFF" cx="304.5" cy="62.5" r="1"/>
                <circle id="Oval" fill="#FFF" cx="50.5" cy="290.5" r="1"/>
                <circle id="Oval" fill="#FFF" cx="127.5" cy="72.5" r="1"/>
                <circle id="Oval" fill="#FFF" cx="116.5" cy="187.5" r="1"/>
                <circle id="Oval" fill="#FFF" cx="41.5" cy="256.5" r="1"/>
                <circle id="Oval" fill="#FFF" cx="119.5" cy="38.5" r="1"/>
                <circle id="Oval" fill="#FFF" cx="101" cy="46" r="3"/>
                <circle id="Oval" fill="#FFF" cx="89" cy="162" r="3"/>
                <circle id="Oval" fill="#FFF" cx="230" cy="165" r="3"/>
                <circle id="Oval" fill="#FFF" cx="285" cy="69" r="3"/>
                <circle id="Oval" fill="#FFF" cx="32" cy="297" r="3"/>
                <circle id="Oval" fill="#FFF" cx="61" cy="264" r="3"/>
                <circle id="Oval" fill="#FFF" cx="164" cy="42" r="3"/>
                <circle id="Oval" fill="#FFF" cx="79.5" cy="66.5" r="1.5"/>
                <circle id="Oval" fill="#FFF" cx="29.5" cy="5.5" r="1.5"/>
                <circle id="Oval" fill="#FFF" cx="68.5" cy="181.5" r="1.5"/>
                <circle id="Oval" fill="#FFF" cx="240.5" cy="177.5" r="1.5"/>
                <circle id="Oval" fill="#FFF" cx="295.5" cy="81.5" r="1.5"/>
                <circle id="Oval" fill="#FFF" cx="41.5" cy="309.5" r="1.5"/>
                <circle id="Oval" fill="#FFF" cx="118.5" cy="91.5" r="1.5"/>
                <circle id="Oval" fill="#FFF" cx="107.5" cy="207.5" r="1.5"/>
                <circle id="Oval" fill="#FFF" cx="32.5" cy="276.5" r="1.5"/>
                <circle id="Oval" fill="#FFF" cx="109.5" cy="79.5" r="1"/>
                <circle id="Oval" fill="#FFF" cx="105.5" cy="297.5" r="1"/>
                <circle id="Oval" fill="#FFF" cx="96.5" cy="283.5" r="1.5"/>
                <circle id="Oval" fill="#FFF" cx="75.5" cy="304.5" r="1"/>
                <circle id="Oval" fill="#FFF" cx="98.5" cy="194.5" r="1"/>
                <circle id="Oval" fill="#FFF" cx="127.5" cy="232.5" r="1"/>
                <circle id="Oval" fill="#FFF" cx="118.5" cy="252.5" r="1.5"/>
                <circle id="Oval" fill="#FFF" cx="109.5" cy="239.5" r="1"/>
                <circle id="Oval" fill="#FFF" cx="206.5" cy="120.5" r="1"/>
                <circle id="Oval" fill="#FFF" cx="82.5" cy="85.5" r="1"/>
                <circle id="Oval" fill="#FFF" cx="32.5" cy="24.5" r="1"/>
                <circle id="Oval" fill="#FFF" cx="197.5" cy="139.5" r="1.5"/>
                <circle id="Oval" fill="#FFF" cx="73.5" cy="104.5" r="1.5"/>
                <circle id="Oval" fill="#FFF" cx="188.5" cy="127.5" r="1"/>
                <circle id="Oval" fill="#FFF" cx="64.5" cy="92.5" r="1"/>
                <circle id="Oval" fill="#FFF" cx="14.5" cy="31.5" r="1"/>
                <circle id="Oval" fill="#FFF" cx="229.5" cy="74.5" r="1"/>
                <circle id="Oval" fill="#FFF" cx="220.5" cy="94.5" r="1.5"/>
                <circle id="Oval" fill="#FFF" cx="211.5" cy="81.5" r="1"/>
                <circle id="Oval" fill="#FFF" cx="285.5" cy="255.5" r="1"/>
                <circle id="Oval" fill="#FFF" cx="276.5" cy="274.5" r="1.5"/>
                <circle id="Oval" fill="#FFF" cx="267.5" cy="262.5" r="1"/>
                <circle id="Oval" fill="#FFF" cx="263.5" cy="241.5" r="1"/>
                <circle id="Oval" fill="#FFF" cx="254.5" cy="226.5" r="1.5"/>
                <circle id="Oval" fill="#FFF" cx="244.5" cy="248.5" r="1"/>
                <circle id="Oval" fill="#FFF" cx="195.5" cy="120.5" r="1"/>
                <circle id="Oval" fill="#FFF" cx="71.5" cy="85.5" r="1"/>
                <circle id="Oval" fill="#FFF" cx="21.5" cy="24.5" r="1"/>
                <circle id="Oval" fill="#FFF" cx="186.5" cy="85.5" r="1.5"/>
                <circle id="Oval" fill="#FFF" cx="177.5" cy="127.5" r="1"/>
                <circle id="Oval" fill="#FFF" cx="53.5" cy="92.5" r="1"/>
                <circle id="Oval" fill="#FFF" cx="172.5" cy="105.5" r="1"/>
                <circle id="Oval" fill="#FFF" cx="164.5" cy="91.5" r="1.5"/>
                <circle id="Oval" fill="#FFF" cx="154.5" cy="112.5" r="1"/>
                <circle id="Oval" fill="#FFF" cx="118.5" cy="26.5" r="1.5"/>
                <circle id="Oval" fill="#FFF" cx="247.5" cy="143.5" r="1.5"/>
                <circle id="Oval" fill="#FFF" cx="302.5" cy="47.5" r="1.5"/>
                <circle id="Oval" fill="#FFF" cx="48.5" cy="276.5" r="1.5"/>
                <circle id="Oval" fill="#FFF" cx="163.5" cy="166.5" r="1"/>
                <circle id="Oval" fill="#FFF" cx="39.5" cy="131.5" r="1"/>
                <circle id="Oval" fill="#FFF" cx="218.5" cy="173.5" r="1"/>
                <circle id="Oval" fill="#FFF" cx="209.5" cy="159.5" r="1.5"/>
                <circle id="Oval" fill="#FFF" cx="85.5" cy="124.5" r="1.5"/>
                <circle id="Oval" fill="#FFF" cx="188.5" cy="180.5" r="1"/>
                <circle id="Oval" fill="#FFF" cx="64.5" cy="145.5" r="1"/>
                <circle id="Oval" fill="#FFF" cx="161.5" cy="152.5" r="1.5"/>
                <circle id="Oval" fill="#FFF" cx="37.5" cy="117.5" r="1.5"/>
                <circle id="Oval" fill="#FFF" cx="221.5" cy="211.5" r="1"/>
                <circle id="Oval" fill="#FFF" cx="206.5" cy="211.5" r="1"/>
                <circle id="Oval" fill="#FFF" cx="206.5" cy="251.5" r="1"/>
                <circle id="Oval" fill="#FFF" cx="191.5" cy="247.5" r="1"/>
                <circle id="Oval" fill="#FFF" cx="187.5" cy="264.5" r="1"/>
                <circle id="Oval" fill="#FFF" cx="221.5" cy="283.5" r="1"/>
                <g id="Group" transform="translate(36.000000, 158.000000)" fill="#FFF">
                    <circle id="Oval" cx="34.5" cy=".5" r="1"/>
                    <circle id="Oval" cx="19.5" cy=".5" r="1"/>
                    <circle id="Oval" cx=".5" cy="53.5" r="1"/>
                    <circle id="Oval" cx="34.5" cy="72.5" r="1"/>
                </g>
                <circle id="Oval" fill="#FFF" cx="126.5" cy="57.5" r="1.5"/>
                <circle id="Oval" fill="#FFF" cx="237.5" cy="205.5" r="1.5"/>
                <circle id="Oval" fill="#FFF" cx="113.5" cy="170.5" r="1.5"/>
                <circle id="Oval" fill="#FFF" cx="114" cy="181" r="1"/>
                <circle id="Oval" fill="#FFF" cx="258.5" cy="1.5" r="1.5"/>
                <circle id="Oval" fill="#FFF" cx="250.5" cy="84.5" r="1.5"/>
                <circle id="Oval" fill="#FFF" cx="17.5" cy="280.5" r="1.5"/>
                <circle id="Oval" fill="#FFF" cx="95.5" cy="61.5" r="1.5"/>
                <circle id="Oval" fill="#FFF" cx="83.5" cy="177.5" r="1.5"/>
                <circle id="Oval" fill="#FFF" cx="21.5" cy="292.5" r="1"/>
                <circle id="Oval" fill="#FFF" cx="27.5" cy="305.5" r="1"/>
                <circle id="Oval" fill="#FFF" cx="12.5" cy="305.5" r="1"/>
                <circle id="Oval" fill="#FFF" cx="172.5" cy="194.5" r="1"/>
                <circle id="Oval" fill="#FFF" cx="178.5" cy="207.5" r="1"/>
                <circle id="Oval" fill="#FFF" cx="163.5" cy="207.5" r="1"/>
                <circle id="Oval" fill="#FFF" cx="253.5" cy="43.5" r="1"/>
                <circle id="Oval" fill="#FFF" cx="259.5" cy="56.5" r="1"/>
                <circle id="Oval" fill="#FFF" cx="244.5" cy="56.5" r="1"/>
                <circle id="Oval" fill="#FFF" cx="288.5" cy="97.5" r="1"/>
                <circle id="Oval" fill="#FFF" cx="294.5" cy="110.5" r="1"/>
                <circle id="Oval" fill="#FFF" cx="279.5" cy="110.5" r="1"/>
                <circle id="Oval" fill="#FFF" cx="3.5" cy="31.5" r="1"/>
            </g>
        </g>
        <g id="Space/Space Stuff" transform="translate(123.000000, 167.000000) scale(0.9790209790209791 0.971830985915493)">
            <defs>
                <ellipse id="spacespace-stuffplanet-path-1" cx="61.5" cy="59.5" rx="61.5" ry="59.5"/>
            </defs>
            <g id="Space/Space Stuff/Planet" stroke="none" stroke-width="1" fill="none" fill-rule="evenodd">
                <g id="Combined-Shape-+-Combined-Shape-+-Combined-Shape-Mask" transform="translate(71.500000, 71.500000) rotate(10.000000) translate(-71.500000, -71.500000) translate(10.000000, 12.000000)">
                    <mask id="spacespace-stuffplanet-mask-2" fill="#fff">
                        <use xlink:href="#spacespace-stuffplanet-path-1"/>
                    </mask>
                    <use id="Mask" fill="#613CAB" xlink:href="#spacespace-stuffplanet-path-1"/>
                    <path d="M156.610673,39.0009916 C156.868358,40.5380009 157,42.0945462 157,43.6676181 C157,72.0177098 114.243194,95 61.5,95 C8.75680639,95 -34,72.0177098 -34,43.6676181 C-34,42.0945462 -33.8683583,40.5380009 -33.6106733,39.0009916 C-29.2237557,65.1645309 11.6837359,85.6668396 61.5,85.6668396 C111.078602,85.6668396 151.833232,65.359688 156.545305,39.3756972 Z" id="Combined-Shape" fill="#412A6E" mask="url(#spacespace-stuffplanet-mask-2)"/>
                    <path d="M198.278298,-0.999922746 C198.755481,1.31171026 199,3.65768312 199,6.03209316 C199,43.5697316 137.886868,74 62.5,74 C-12.8868683,74 -74,43.5697316 -74,6.03209316 C-74,3.65802624 -73.755552,1.31238829 -73.2785051,-0.998920591 C-66.2115757,33.2353313 -8.11833883,59.9376744 62.5,59.9376744 C132.609788,59.9376744 190.37422,33.6185353 198.117703,-0.25980642 Z" id="Combined-Shape" fill="#48258E" mask="url(#spacespace-stuffplanet-mask-2)"/>
                    <path d="M163.584175,-16.9990084 C163.859398,-15.4619991 164,-13.9054538 164,-12.3323819 C164,16.0177098 118.333044,39 62,39 C5.66695552,39 -40,16.0177098 -40,-12.3323819 C-40,-13.9054538 -39.8593984,-15.4619991 -39.5841747,-16.9990084 C-34.8986711,9.16453091 8.79310013,29.6668396 62,29.6668396 C114.953062,29.6668396 158.481567,9.359688 163.514357,-16.6243028 Z" id="Combined-Shape" fill="#9E6EFF" mask="url(#spacespace-stuffplanet-mask-2)"/>
                    <path d="M137.756366,71.0000696 C137.917756,71.9602601 138,72.9310439 138,73.9109493 C138,93.8423816 103.973641,110 62,110 C20.026359,110 -14,93.8423816 -14,73.9109493 C-14,72.9310439 -13.9177555,71.9602601 -13.7563656,71.0000696 C-10.6338844,89.5717776 22.0906599,104.179185 62,104.179185 C101.874959,104.179185 134.577496,89.5969348 137.748062,71.049998 Z" id="Combined-Shape" fill="#8A6CC6" mask="url(#spacespace-stuffplanet-mask-2)"/>
                </g>
            </g>
        </g>
        <g id="Space/Space Stuff" opacity=".744" transform="translate(578.000000, 399.000000) scale(0.5874125874125874 0.5915492957746479)">
            <g id="Space/Space Stuff/Saturn 2" stroke="none" stroke-width="1" fill="none" fill-rule="evenodd">
                <g id="Group" transform="translate(71.500000, 70.500000) rotate(-20.000000) translate(-71.500000, -70.500000) translate(-33.000000, 15.000000)">
                    <circle id="Oval" fill="#E09A33" cx="104.5" cy="55.5" r="55.5"/>
                    <circle id="Oval" fill-opacity=".3" fill="#FFF" cx="69.5" cy="43.5" r="12.5"/>
                    <ellipse id="Oval" fill-opacity=".3" fill="#FFF" cx="82.5" cy="27" rx="4.5" ry="4"/>
                    <circle id="Oval" fill-opacity=".2" fill="#000" cx="132.5" cy="87.5" r="10.5"/>
                    <path d="M209,60 C209,75.463973 162.213756,88 104.5,88 C46.7862436,88 0,75.463973 0,60 C0,49.5928783 21.1903083,40.5118747 52.6408394,35.6856243 C51.8640194,37.7191494 51.202476,39.8110239 50.6653308,41.9522575 C39.0636338,44.6122465 32,48.1354543 32,52 C32,60.2842712 64.4593556,67 104.5,67 C144.540644,67 177,60.2842712 177,52 C177,48.1354543 169.936366,44.6122465 158.334608,41.9528959 C157.797524,39.8110239 157.135981,37.7191494 156.358167,35.6847623 C187.809692,40.5118747 209,49.5928783 209,60 Z" id="Combined-Shape" fill="#FFC267"/>
                </g>
            </g>
        </g>
        <g transform="translate(355.000000, 519.500000) rotate(-4.000000) translate(-355.000000, -519.500000) translate(-97.000000, 90.000000) scale(1 1)" id="Master/Character/Astronaut">
            <defs>
                <polygon id="mastercharacterastronaut-path-1" points="0 838 712.461 838 712.461 0.099 0 0.099"/>
            </defs>
            <g id="Master/Character/Astronaut" stroke="none" stroke-width="1" fill="none" fill-rule="evenodd">
                <g id="Group-121" transform="translate(191.000000, -106.000000)">
                    <g id="Lower" transform="translate(-64.000000, 400.901000) scale(1 1)">
                        <defs>
                            <polygon id="lowerleaning-back-path-1" points="0.6587 0.0768 206.69 0.0768 206.69 220.3748 0.6587 220.3748"/>
                            <polygon id="lowerleaning-back-path-3" points="0 0.6751 322.089376 0.6751 322.089376 278.1001 0 278.1001"/>
                        </defs>
                        <g id="Lower/Leaning Back" stroke="none" stroke-width="1" fill="none" fill-rule="evenodd">
                            <g id="Group-39" transform="translate(253.290000, -4.100000)">
                                <path d="M590.9836,322.3743 C483.4336,354.1663 548.8496,363.2333 472.0376,233.3383 C400.4936,109.5843 332.5506,117.7803 204.8316,108.2683 L213.7256,29.7703 C291.8356,35.4503 378.2036,35.1803 444.8516,82.9303 C503.1916,125.2733 541.1016,188.4023 570.5996,252.3273 C579.7006,272.4763 587.8496,292.9283 595.0156,313.9633 C596.2126,317.4913 594.3886,321.2803 590.9836,322.3743" id="Fill-1" fill="#B18058"/>
                                <g id="Group-5" transform="translate(434.000000, 131.097000)">
                                    <mask id="lowerleaning-back-mask-2" fill="#fff">
                                        <use xlink:href="#lowerleaning-back-path-1"/>
                                    </mask>
                                    <g id="Clip-4"/>
                                    <path d="M161.4357,162.5938 C139.4057,104.4588 111.4257,48.7158 71.8997,0.0768 L0.6587,58.6088 C38.2897,105.3088 65.1977,163.0118 83.8227,220.3748 C84.7647,220.0998 111.9987,212.1468 113.7427,211.6368 C113.7607,210.0378 113.3777,207.1068 113.2417,205.4488 C113.2407,205.4488 131.5417,206.4398 131.5417,206.4398 C150.1867,200.9938 188.1827,189.8998 206.6907,184.4938 C206.1497,182.7068 205.0467,179.1048 204.4747,177.3438 C203.1987,159.1998 177.9857,169.4088 161.4357,162.5938" id="Fill-3" fill="#051026" mask="url(#lowerleaning-back-mask-2)"/>
                                </g>
                                <path d="M510.4172,136.7762 L438.0972,193.9722 C393.6012,133.0122 332.3992,121.7772 262.5352,118.1772 C213.9452,115.5622 162.7072,115.0672 119.6462,86.8212 L169.8552,9.4872 C205.9762,29.6292 250.5302,22.6622 291.4562,27.7462 C381.7442,34.6892 454.5782,63.0032 510.4172,136.7762" id="Fill-6" fill="#C0C6CE"/>
                                <path d="M450.938012,78.4260426 C451.263947,77.9801896 451.889604,77.8829769 452.335457,78.2089118 C452.747014,78.5097749 452.861504,79.066023 452.620326,79.5004948 L452.552588,79.6063574 L425.345588,116.823357 C425.019653,117.26921 424.393996,117.366423 423.948143,117.040488 C423.536586,116.739625 423.422096,116.183377 423.663274,115.748905 L423.731012,115.643043 L450.938012,78.4260426 Z" id="Stroke-8" fill="#0A1B45" fill-rule="nonzero"/>
                                <path d="M433.138017,66.7417284 C433.420881,66.2673803 434.034724,66.1121523 434.509072,66.3950169 C434.949538,66.6576769 435.114844,67.2057205 434.909735,67.662462 L434.855783,67.7660716 L411.243783,107.362072 C410.960919,107.83642 410.347076,107.991648 409.872728,107.708783 C409.432262,107.446123 409.266956,106.898079 409.472065,106.441338 L409.526017,106.337728 L433.138017,66.7417284 Z" id="Stroke-10" fill="#0A1B45" fill-rule="nonzero"/>
                                <path d="M467.385239,91.4249461 C467.746518,91.0072192 468.378027,90.9614593 468.795754,91.3227386 C469.181348,91.6562271 469.25,92.2199708 468.974124,92.6332808 L468.897961,92.7332539 L438.739961,127.603254 C438.378682,128.020981 437.747173,128.066741 437.329446,127.705461 C436.943852,127.371973 436.8752,126.808229 437.151076,126.394919 L437.227239,126.294946 L467.385239,91.4249461 Z" id="Stroke-12" fill="#0A1B45" fill-rule="nonzero"/>
                                <path d="M165.098569,14.9761746 C165.403941,14.515994 166.024545,14.390497 166.484725,14.6958692 C178.619254,22.7482467 195.445976,27.0526685 218.848787,29.3171378 L222.846089,29.684084 C227.881034,30.1230149 232.329359,30.4097851 241.589181,30.9251041 L250.538324,31.419278 L255.956471,31.6893524 C298.57986,33.8709325 324.14514,36.5986559 351.705237,42.9333072 C377.340301,48.9205737 399.280664,56.2474922 418.588861,65.8435996 C419.083432,66.0893998 419.285101,66.6895894 419.0393,67.1841606 C418.7935,67.6787319 418.193311,67.8804006 417.698739,67.6346004 C398.545219,58.1153667 376.746122,50.8356235 351.253793,44.8816874 L349.542612,44.4924722 C321.629059,38.2106138 295.328859,35.5976354 250.43325,33.4164997 L235.649898,32.5900733 C228.625609,32.1770585 224.872453,31.8922136 219.589253,31.3967312 L217.741979,31.2180332 C194.512276,28.9009585 177.691632,24.5329797 165.378875,16.3623308 C164.918694,16.0569585 164.793197,15.4363553 165.098569,14.9761746 Z" id="Stroke-14" fill="#051026" fill-rule="nonzero"/>
                                <path d="M479.092293,102.050291 L478.254374,102.941989 L466.703921,115.331859 C463.142494,119.137805 460.784951,121.571646 458.718154,123.542877 L458.497782,123.752352 C453.322954,128.654568 449.853795,130.642785 446.149378,130.562113 C442.850562,130.490274 439.67657,128.91344 433.842075,124.751152 L432.643455,123.886057 C430.791538,122.53166 425.478312,118.595277 423.536092,117.177845 L423.373642,117.059444 C418.820796,113.746095 414.546037,110.770548 409.873171,107.707449 C402.350012,103.220536 402.622241,94.9884111 408.33604,82.9819706 L408.535221,82.5664594 C409.582382,80.3975183 410.774981,78.1507845 412.275829,75.478908 L416.833006,67.4986741 C417.079976,67.0621805 417.283912,66.6990342 417.422451,66.4477434 L417.856107,65.6535148 C419.177322,63.2083115 420.007561,61.4174529 420.441125,60.0168826 C420.604445,59.4892986 421.164533,59.1940043 421.692117,59.3573245 C422.219701,59.5206447 422.514996,60.0807333 422.351675,60.6083174 C421.871965,62.1579566 420.99925,64.0430163 419.624767,66.5875162 L418.917357,67.8738706 C417.75091,69.9530981 414.743085,75.1766958 414.343289,75.8839372 L413.707703,77.0154547 C412.473771,79.2272636 411.457685,81.1436194 410.558669,82.9787902 L410.336296,83.4360156 C404.832367,94.8360743 404.511219,102.18081 410.933488,106.01218 C415.197922,108.806572 419.108206,111.511021 423.184768,114.452589 L425.09151,115.837602 C427.482422,117.58918 433.008365,121.683847 434.220106,122.560123 L435.337132,123.360061 C440.628438,127.108793 443.482736,128.503566 446.192922,128.562587 C449.230779,128.628744 452.29723,126.871323 457.12233,122.300411 L457.779556,121.671418 C459.562967,119.947733 461.616402,117.829579 464.505193,114.753094 L477.350553,100.982773 L477.636507,100.678909 C478.015204,100.276905 478.648087,100.25801 479.050091,100.636707 C479.452095,101.015404 479.47099,101.648287 479.092293,102.050291 Z" id="Stroke-16" fill="#0A1B45" fill-rule="nonzero"/>
                                <path d="M112.7463,103.3376 L102.7453,103.3376 C48.0693,103.3376 3.7453,59.0136 3.7453,4.3376 L211.7453,4.3376 C211.7453,59.0136 167.4223,103.3376 112.7463,103.3376" id="Fill-18" fill="#D7DBE2"/>
                                <g id="Group" transform="translate(0.000000, 0.097000)">
                                    <path d="M293.8273,453.667 C304.4783,393.001 314.0903,332.358 319.4993,270.739 L227.6213,263.007 C221.2143,328.939 211.7553,396.518 197.9373,461.609 C202.0953,462.796 214.2323,466.35 218.5553,467.616 C240.1363,473.936 193.4713,460.289 197.9513,461.563 C197.9643,461.519 198.0003,461.397 198.0143,461.352 C198.9543,461.633 226.1393,469.756 227.8793,470.276 C228.9003,469.015 229.7123,466.972 230.5713,465.411 C235.5743,468.604 240.6463,472.397 245.6453,475.585 C264.2403,481.14 302.1933,492.484 320.6553,498 C321.3693,495.602 322.2943,492.07 322.9133,489.631 C331.8223,471.842 302.3233,465.994 293.8273,453.667" id="Fill-22" fill="#0A1B45"/>
                                    <g id="Group-26">
                                        <mask id="lowerleaning-back-mask-4" fill="#fff">
                                            <use xlink:href="#lowerleaning-back-path-3"/>
                                        </mask>
                                        <g id="Clip-25"/>
                                        <path d="M227.0317,269.7071 C228.9177,247.5861 230.8807,223.6581 229.1307,202.4071 C229.1487,202.4171 229.0817,202.3581 229.2137,202.5241 C200.4537,170.2331 156.1567,158.1101 116.4187,139.9211 C57.9667,116.7621 0.6567,72.7291 -0.0003,3.5961 L92.1577,4.2406 C94.1177,41.1326 145.8837,50.5221 174.7557,64.5191 C205.4357,77.3471 236.7097,90.5941 264.6547,110.8101 C287.8977,128.7291 313.8057,150.8641 319.1797,181.2891 C324.4867,213.4191 321.3947,246.0291 318.8527,278.1001 L227.0317,269.7071 Z" id="Fill-24" fill="#D7DBE2" mask="url(#lowerleaning-back-mask-4)"/>
                                    </g>
                                    <path d="M259.3106,167.8782 C249.5996,168.7422 240.2856,170.6202 231.3526,173.1942 C164.6756,118.3692 26.3711489,114.338 22.2221489,4.003 L68.2502528,3.5961 C68.9572528,47.1731 115.0026,64.5452 149.4936,79.5412 C187.8206,95.9112 228.0156,110.6672 260.7736,137.7002 C261.2776,148.0952 260.8346,158.2502 259.3106,167.8782 Z" id="Fill-27" fill="#0A1B45"/>
                                    <path d="M320.594828,190.680289 C321.143418,190.616516 321.639837,191.009538 321.703611,191.558128 C321.762829,192.067533 321.428178,192.531954 320.940836,192.646762 L320.825772,192.666911 L275.027772,197.990911 C274.479182,198.054684 273.982763,197.661662 273.918989,197.113072 C273.859771,196.603667 274.194422,196.139246 274.681764,196.024438 L274.796828,196.004289 L320.594828,190.680289 Z" id="Stroke-29" fill="#0A1B45" fill-rule="nonzero"/>
                                    <path d="M313.452062,162.785824 C313.954407,162.556329 314.547681,162.777517 314.777176,163.279862 C314.990279,163.746326 314.814781,164.291192 314.386418,164.550396 L314.283138,164.604976 L272.107138,183.872976 C271.604793,184.102471 271.011519,183.881283 270.782024,183.378938 C270.568921,182.912474 270.744419,182.367608 271.172782,182.108404 L271.276062,182.053824 L313.452062,162.785824 Z" id="Stroke-31" fill="#0A1B45" fill-rule="nonzero"/>
                                    <path d="M321.971406,213.643278 C322.523648,213.636378 322.976922,214.078464 322.983902,214.630706 C322.990229,215.143502 322.6095,215.570963 322.112922,215.634938 L321.996394,215.643122 L275.897394,216.219122 C275.345152,216.226022 274.891878,215.783936 274.884898,215.231694 C274.878571,214.718898 275.2593,214.291437 275.755878,214.227462 L275.872406,214.219278 L321.971406,213.643278 Z" id="Stroke-33" fill="#0A1B45" fill-rule="nonzero"/>
                                    <path d="M83.9644992,4.45975401 L83.98,4.46 L83.962015,4.35722113 L83.955702,4.20402142 L83.9721868,4.04469794 C83.980215,4.00257975 83.9965459,3.95784002 84.053704,3.80125095 L84.1478276,3.64914677 C84.3783116,3.29083205 84.4855917,3.29806997 85.4511128,3.36321121 L85.9121507,3.93658901 C85.9727191,4.01928354 85.960366,4.02111152 85.9356597,4.02476749 L85.9722286,4.23497596 L86.1838591,5.60855321 L86.2283661,5.8808668 C86.4722475,7.35815944 86.7508274,8.78379144 87.0767623,10.119933 C87.2636297,10.8859794 87.4597985,11.5940643 87.6649989,12.2334679 C90.8922343,22.2895165 98.6390267,31.2638769 111.020861,39.9329231 C121.000096,46.9198086 133.513992,53.4968563 151.509711,61.5681448 L154.850797,63.0550288 C161.837457,66.1239645 190.867128,78.5286407 200.929185,83.0039999 L201.833281,83.4077011 C223.78333,93.2536628 240.728223,102.063844 255.674591,111.887951 C273.750787,123.769265 287.954957,136.653786 298.392862,151.316364 C298.713152,151.766289 298.608062,152.390672 298.158136,152.710962 C297.708211,153.031252 297.083828,152.926162 296.763538,152.476236 C286.48283,138.034478 272.458967,125.313514 254.576063,113.559249 C240.003669,103.980951 223.488211,95.3576531 202.202215,85.7663811 L199.446021,84.5339079 C188.498261,79.6860266 159.054057,67.1078968 153.439882,64.6186198 L150.683569,63.3895696 C132.58517,55.27205 119.977325,48.6451972 109.873779,41.5712774 C97.1652995,32.6735325 89.1409796,23.3776673 85.7606625,12.8446166 C85.5398854,12.1566764 85.3312432,11.4035678 85.1337373,10.5939095 C84.8621602,9.48060323 84.623686,8.31550948 84.4104207,7.11417968 L84.2094853,5.9276984 L83.991,4.517 L83.9843528,4.50763916 C83.9605094,4.47351088 83.955702,4.46229692 83.9644992,4.45975401 Z" id="Stroke-35" fill="#0A1B45" fill-rule="nonzero"/>
                                    <path d="M302.681729,146.896831 C303.079853,146.514058 303.712896,146.526504 304.095669,146.924629 C304.478442,147.322753 304.465996,147.955796 304.067871,148.338569 C303.105532,149.263799 301.500821,150.487746 298.784743,152.404205 L291.1208,157.729521 C290.347988,158.269396 289.640736,158.766916 288.954614,159.253725 L288.27389,159.738136 C286.287694,161.155774 284.529917,162.450444 282.92741,163.683816 L282.155519,164.282817 C276.088186,169.031242 272.614756,172.730134 272.219079,175.127841 L272.198361,175.276001 L272.15773,175.465889 C271.371878,177.935839 271.518111,180.220784 272.608861,182.564954 C274.536215,186.997606 275.353261,191.310167 276.118713,198.976382 C276.569765,203.949998 276.800703,209.109606 276.884718,215.206864 C276.966608,221.586032 282.115534,226.933273 288.571559,227.269879 L288.875128,227.281972 L321.916128,228.052972 C322.468263,228.065856 322.905412,228.523894 322.892528,229.076028 C322.880564,229.588725 322.484769,230.002275 321.986218,230.048423 L321.869472,230.052428 L288.824248,229.28132 C281.147707,229.069737 274.9818,222.782333 274.884895,215.233478 C274.801545,209.184521 274.572806,204.074032 274.127748,199.166059 L274.006404,197.984537 C273.294611,191.255327 272.497788,187.325182 270.785197,183.385684 C269.547113,180.725747 269.3308,178.041004 270.140445,175.227261 L270.224,174.947 L270.236748,174.859568 C270.728102,171.679154 274.527216,167.668056 281.297773,162.415534 L281.70757,162.09889 L282.813366,161.256466 C284.13184,160.261821 285.55299,159.222986 287.111996,158.110253 L288.852898,156.876832 C289.574826,156.368885 290.339836,155.834609 291.192569,155.242205 L296.612814,151.485141 L298.224189,150.35023 C300.497173,148.733332 301.882225,147.665505 302.681729,146.896831 Z" id="Stroke-37" fill="#0A1B45" fill-rule="nonzero"/>
                                </g>
                            </g>
                        </g>
                    </g>
                    <g id="Upper" transform="translate(0.000000, 0.901000) scale(1 1)">
                        <defs>
                            <polygon id="upperspread-arms-path-1" points="0 838 712.461 838 712.461 0.099 0 0.099"/>
                        </defs>
                        <g id="Upper/Spread Arms" stroke="none" stroke-width="1" fill="none" fill-rule="evenodd">
                            <g id="Upper" transform="translate(0.000000, 126.000000)">
                                <path d="M708.9402,124.8384 C713.0682,127.6044 713.6692,133.9354 710.1962,138.8624 C695.0852,160.2394 678.8062,180.6564 660.6022,200.0824 C656.3652,204.5244 650.0572,205.2784 646.5012,201.7584 C643.0022,198.2754 643.4282,192.0054 647.4752,187.7644 C665.0012,169.0694 680.8272,149.2314 695.4772,128.5014 C698.8252,123.7534 704.8072,122.0724 708.9402,124.8384" id="Fill-38" fill="#051026"/>
                                <path d="M702.7234,105.125 C706.9404,107.758 707.7384,114.059 704.4564,118.955 C698.1044,128.469 691.4834,137.666 684.6204,146.726 C681.0634,151.379 674.9824,152.617 671.0784,149.518 C667.1974,146.435 666.8584,140.322 670.2864,135.837 C676.9354,127.06 683.3684,118.125 689.4914,108.954 C692.6324,104.267 698.4964,102.51 702.7234,105.125" id="Fill-40" fill="#051026"/>
                                <path d="M690.3572,94.7168 C694.6332,97.2628 695.5812,103.3988 692.4242,108.1578 C686.3062,117.3938 679.9092,126.3978 673.2542,135.2208 C669.8442,139.7848 663.7942,140.9028 659.9062,137.8398 C655.9842,134.7518 655.5942,128.7858 658.8782,124.3898 C665.3202,115.8488 671.5292,107.1088 677.4102,98.2318 C680.4262,93.6798 686.1212,92.1278 690.3572,94.7168" id="Fill-42" fill="#051026"/>
                                <path d="M648.0398,112.187 C652.0228,115.129 652.6518,121.09 649.3108,125.391 C642.8518,133.748 636.1578,141.907 629.2308,149.812 C627.4368,151.835 623.6178,152.81 620.2138,153.153 C616.8218,153.52 613.9158,153.362 613.9158,153.362 C618.2178,148.644 610.1958,144.215 617.7668,135.589 C623.6998,128.718 629.4658,121.628 635.0648,114.387 C638.2768,110.255 644.0278,109.221 648.0398,112.187" id="Fill-44" fill="#051026"/>
                                <path d="M672.1638,93.4678 C676.3258,96.1758 677.2658,102.1248 674.1178,106.6788 C663.6148,121.9028 652.3508,136.6658 640.3478,150.7138 C638.5728,152.8238 636.1698,154.0468 633.7508,154.3078 C631.3388,154.5798 628.9308,153.9088 627.0738,152.2568 C625.2178,150.6048 624.2568,148.2918 624.1868,145.9088 C624.1278,143.5338 624.9418,141.0678 626.6528,139.0328 C638.2178,125.4998 649.1498,111.1738 659.2898,96.4738 C662.3098,92.1068 667.9948,90.7518 672.1638,93.4678" id="Fill-46" fill="#051026"/>
                                <path d="M676.5437,129.1279 C683.9007,134.5179 688.0297,142.8509 688.4687,152.1329 C688.9047,161.3819 685.5967,171.5469 678.4427,180.0119 C662.7387,197.8739 645.7677,214.9789 626.6597,230.6959 C617.0847,238.5319 607.0647,246.0779 596.1337,252.9279 C585.2297,259.7819 573.5527,266.0519 560.8397,271.1729 C548.1517,276.2889 534.3197,280.1989 519.6267,281.9499 C504.8977,283.6499 490.1257,282.8699 476.2567,280.2469 C462.3547,277.6339 449.3287,273.2529 437.2317,267.8889 C425.1237,262.5129 413.9057,256.1489 403.3877,249.2139 C383.7827,236.1739 366.5457,221.2359 350.7847,205.2829 C343.6787,198.3959 338.9257,190.5289 337.7647,182.9779 C336.5867,175.4129 339.0167,168.2249 345.9187,162.2879 C352.8307,156.3399 361.4467,153.7399 369.6827,153.9119 C377.9387,154.1119 385.8357,157.0909 391.8807,162.9489 C405.5977,176.2649 420.3127,188.3479 435.7517,198.1449 C452.2477,208.6099 469.7047,216.4019 486.7047,219.2899 C495.1957,220.7439 503.5227,220.9859 511.5757,219.9319 C519.6477,218.8129 527.9697,216.4309 536.2917,212.9019 C544.6137,209.3889 552.9117,204.8129 561.0227,199.5109 C569.1477,194.2349 577.0317,188.0769 584.7177,181.5429 C592.3977,174.9829 599.8557,167.9429 607.0817,160.5579 C614.3007,153.1579 621.2757,145.3979 628.0387,137.4039 C634.3197,129.9699 642.6747,125.3469 651.3997,123.7779 C655.7467,122.9909 660.1917,122.9889 664.4807,123.8539 C668.7527,124.7079 672.8717,126.4309 676.5437,129.1279" id="Fill-48" fill="#051026"/>
                                <path d="M608.1951,159.3706 L655.6261,205.2656 C646.7621,213.9386 637.4771,222.3476 627.6321,230.3736 C618.3131,238.8066 608.4371,246.9456 597.5831,254.4546 C586.7491,261.9636 575.0311,268.9286 562.0591,274.7476 C561.5871,274.9576 559.2981,275.9376 556.0511,277.2396 C554.3641,277.8236 552.4351,278.4906 550.3871,279.1986 C549.3611,279.5456 548.3051,279.9036 547.2331,280.2666 C546.1631,280.6286 545.0851,281.0016 543.9321,281.2886 C541.6601,281.8936 539.3871,282.4986 537.2411,283.0706 C536.1651,283.3486 535.1221,283.6176 534.1251,283.8746 C533.1081,284.1036 532.1081,284.2746 531.1911,284.4566 C527.5021,285.1476 524.8581,285.6436 524.3061,285.7466 C516.0471,287.1346 507.5491,287.6796 499.2531,287.5666 C490.9331,287.4526 482.7491,286.6186 474.8271,285.2246 C458.9601,282.4336 444.1901,277.4666 430.5771,271.3626 C419.7431,266.3676 409.5911,260.6656 400.0491,254.4806 C380.7171,241.9306 363.6901,227.6076 348.0371,212.3536 C338.2991,203.0846 329.9541,190.6226 326.7841,178.5426 C323.5751,166.4776 325.4781,154.8366 335.2051,147.5366 C345.0311,140.3716 356.4381,137.3696 368.7521,139.5646 C381.1181,141.7346 394.2701,149.1706 408.7981,162.3286 C419.0461,172.4896 429.8641,181.8106 441.0811,189.7356 C452.5971,197.7736 464.5441,204.3186 476.3921,208.5386 C488.2581,212.7766 499.8701,214.6136 511.0571,213.7226 C511.7571,213.7096 512.4761,213.5616 513.1901,213.4716 L515.3401,213.1846 L517.5011,212.9236 C518.2261,212.8196 518.9661,212.6096 519.7021,212.4636 L524.1441,211.5316 L528.6651,210.2096 C529.4221,209.9776 530.1801,209.8176 530.9421,209.5346 L533.2321,208.6926 C534.7601,208.1136 536.3011,207.6366 537.8411,206.9936 C540.9111,205.6166 544.0261,204.4346 547.1091,202.7896 C553.3221,199.8426 559.4741,196.0886 565.6101,192.2126 C568.6331,190.1216 571.7251,188.1886 574.7081,185.9246 L579.2251,182.6256 L583.6791,179.1456 C592.0241,173.0656 600.2101,166.4206 608.1951,159.3706" id="Fill-50" fill="#C0C6CE"/>
                                <path d="M534.1912,208.3345 L536.7102,214.3365 C545.6902,211.7415 554.8352,207.9405 563.8632,203.3095 C572.9102,198.6975 581.8052,193.1545 590.5122,187.1095 L583.6792,179.1455 C567.7502,191.8055 550.7712,202.2715 534.1912,208.3345" id="Fill-52" fill="#051026"/>
                                <path d="M559.9832,269.7988 L562.0592,274.7478 C575.0302,268.9268 586.7472,261.9598 597.5792,254.4488 C608.4322,246.9388 618.3072,238.7988 627.6252,230.3648 L619.4892,220.8818 C611.2792,229.9308 602.4832,238.7408 592.6642,246.9928 C582.8602,255.2468 572.1202,263.0378 559.9832,269.7988" id="Fill-54" fill="#051026"/>
                                <path d="M520.9207,264.4268 L524.3067,285.7468 C516.0467,287.1348 507.5487,287.6788 499.2527,287.5668 C490.9337,287.4528 482.7487,286.6188 474.8267,285.2238 C458.9597,282.4328 444.1907,277.4668 430.5767,271.3628 L439.4217,251.6698 C440.8837,248.4328 443.7907,246.2488 447.2277,245.1758 C450.6827,244.0938 454.6417,244.1638 458.5497,245.4968 C465.7497,248.0288 473.1877,249.9768 480.7567,251.3268 C488.3297,252.6628 496.0617,253.2758 503.7977,253.1568 C507.9777,253.0278 511.8437,254.2008 514.9477,256.1338 C518.0467,258.1388 520.3567,260.9288 520.9207,264.4268" id="Fill-56" fill="#051026"/>
                                <path d="M619.489,220.8823 C631.712,216.3093 643.769,211.0393 655.626,205.2653 C646.76,213.9363 637.471,222.3403 627.625,230.3643 L619.489,220.8823 Z" id="Fill-58" fill="#051026"/>
                                <path d="M590.5125,187.1099 C596.8625,178.1319 602.7215,168.8539 608.1955,159.3709 C600.2095,166.4209 592.0245,173.0659 583.6795,179.1459 L590.5125,187.1099 Z" id="Fill-60" fill="#051026"/>
                                <path d="M524.03,217.1646 L528.708,233.5146 C526.567,234.0606 524.437,234.6966 522.292,235.1866 L515.827,236.3846 C511.516,237.0676 507.167,237.3986 502.792,237.4756 C494.039,237.5966 485.217,236.4836 476.523,234.4516 C459.12,230.2776 442.345,222.3446 426.705,212.4196 C416.735,206.1106 407.188,198.9736 398.044,191.2956 C388.896,183.6196 380.151,175.3866 371.809,166.7526 C368.622,163.4566 368.916,158.1446 372.378,154.9736 C375.841,151.7996 381.025,151.8196 384.04,154.9376 C399.968,171.3836 417.358,186.3556 435.808,198.0556 C450.278,207.2506 465.463,214.3206 480.454,217.9056 C487.942,219.6506 495.354,220.5716 502.571,220.4706 C506.183,220.4026 509.728,220.1376 513.266,219.5726 C515.048,219.2226 516.831,218.8926 518.619,218.5816 C520.415,218.1696 522.222,217.6156 524.03,217.1646" id="Fill-62" fill="#051026"/>
                                <path d="M400.2703,274.2515 L188.4583,274.2515 L188.4583,176.6255 C188.4583,153.1565 207.4833,134.1305 230.9523,134.1305 L357.7763,134.1305 C381.2453,134.1305 400.2703,153.1565 400.2703,176.6255 L400.2703,274.2515 Z" id="Fill-64" fill="#D7DBE2"/>
                                <mask id="upperspread-arms-mask-2" fill="#fff">
                                    <use xlink:href="#upperspread-arms-path-1"/>
                                </mask>
                                <g id="Clip-67"/>
                                <polygon id="Fill-66" fill="#0A1B45" mask="url(#upperspread-arms-mask-2)" points="210.942 274.361 257.064 274.361 257.064 182.923 210.942 182.923"/>
                                <path d="M356.6316,275.2798 C356.5796,275.2798 356.5266,275.2758 356.4726,275.2668 C355.9276,275.1798 355.5566,274.6678 355.6436,274.1218 C355.7656,273.3578 367.8976,197.3678 371.6406,171.1258 C373.1186,160.7608 375.1286,146.6668 369.4906,140.1688 C367.4296,137.7928 364.5236,136.6368 360.6076,136.6368 C360.0546,136.6368 359.6076,136.1898 359.6076,135.6368 C359.6076,135.0848 360.0546,134.6368 360.6076,134.6368 C365.0746,134.6368 368.5716,136.0578 371.0016,138.8588 C377.2366,146.0458 375.1526,160.6618 373.6306,171.3348 C369.8746,197.6668 357.7396,273.6728 357.6176,274.4378 C357.5396,274.9298 357.1146,275.2798 356.6316,275.2798" id="Fill-68" fill="#0A1B45" mask="url(#upperspread-arms-mask-2)"/>
                                <path d="M320.322,275.2799 C319.893,275.2799 319.498,275.0029 319.366,274.5729 C319.136,273.8239 296.305,199.3899 285.714,171.6239 C281.06,159.4239 265.308,136.6369 248.299,136.6369 C247.746,136.6369 247.299,136.1899 247.299,135.6369 C247.299,135.0849 247.746,134.6369 248.299,134.6369 C266.281,134.6369 282.758,158.2619 287.583,170.9109 C298.198,198.7389 321.049,273.2379 321.278,273.9869 C321.44,274.5149 321.143,275.0739 320.615,275.2359 C320.517,275.2659 320.419,275.2799 320.322,275.2799" id="Fill-69" fill="#0A1B45" mask="url(#upperspread-arms-mask-2)"/>
                                <path d="M358.3406,195.8599 L313.0036,195.8599 C312.4096,195.8599 311.8726,195.5099 311.6326,194.9669 C311.5666,194.8179 304.9076,179.8489 295.8556,165.0899 C284.1026,145.9279 273.7586,135.7999 265.9436,135.7999 C265.1146,135.7999 264.4436,135.1279 264.4436,134.2999 C264.4436,133.4709 265.1146,132.7999 265.9436,132.7999 C285.9836,132.7999 310.4276,185.0379 313.9746,192.8599 L357.1256,192.8599 C357.7796,189.6989 359.5626,180.5689 360.5176,170.5369 C362.0486,154.4469 360.8106,143.3869 356.9356,138.5519 C355.4506,136.6999 353.6016,135.7999 351.2796,135.7999 C350.4516,135.7999 349.7796,135.1279 349.7796,134.2999 C349.7796,133.4709 350.4516,132.7999 351.2796,132.7999 C354.5246,132.7999 357.2156,134.1039 359.2776,136.6769 C369.6976,149.6809 360.2136,192.8549 359.8046,194.6869 C359.6516,195.3719 359.0426,195.8599 358.3406,195.8599" id="Fill-70" fill="#0A1B45" mask="url(#upperspread-arms-mask-2)"/>
                                <path d="M292.8093,275.7518 C292.1373,275.7518 291.5263,275.2978 291.3553,274.6168 L280.0013,229.4068 L255.9993,205.2488 C255.4153,204.6608 255.4193,203.7108 256.0063,203.1268 C256.5963,202.5428 257.5443,202.5468 258.1283,203.1338 L282.4203,227.5848 C282.6103,227.7758 282.7453,228.0148 282.8113,228.2768 L294.2653,273.8858 C294.4663,274.6898 293.9793,275.5048 293.1753,275.7058 C293.0533,275.7368 292.9303,275.7518 292.8093,275.7518" id="Fill-71" fill="#C0C6CE" mask="url(#upperspread-arms-mask-2)"/>
                                <path d="M372.3533,275.7518 C372.2323,275.7518 372.1093,275.7368 371.9873,275.7058 C371.1833,275.5048 370.6963,274.6898 370.8973,273.8858 L382.3523,228.2768 C382.3973,228.0968 382.4753,227.9268 382.5823,227.7758 L399.8743,203.3248 C400.3523,202.6478 401.2883,202.4888 401.9643,202.9668 C402.6403,203.4448 402.8013,204.3808 402.3233,205.0568 L385.1943,229.2788 L373.8073,274.6168 C373.6363,275.2978 373.0253,275.7518 372.3533,275.7518" id="Fill-72" fill="#C0C6CE" mask="url(#upperspread-arms-mask-2)"/>
                                <path d="M43.0808,436.5742 C48.1378,444.0412 53.4728,448.1492 58.3958,450.2762 C63.3038,452.4072 67.8128,452.5682 71.3288,452.1142 C74.8518,451.6492 76.7048,448.3722 76.8358,444.7482 C76.9358,441.1282 75.3248,437.1342 71.6648,435.1322 C68.0448,433.1182 63.3658,432.2522 58.4158,429.4062 C55.9418,427.9802 53.3318,426.0742 50.8068,423.2502 C49.5368,421.8402 48.2598,420.2082 47.0058,418.3012 C45.7748,416.3872 44.5598,414.1982 43.3678,411.6872 C38.7418,401.6002 36.1648,403.8692 35.8988,410.7872 C35.6638,417.6732 38.0218,429.1062 43.0808,436.5742" id="Fill-73" fill="#051026" mask="url(#upperspread-arms-mask-2)"/>
                                <path d="M67.6804,351.9009 C67.4814,348.9009 64.1544,347.3979 59.0534,346.8629 C53.9534,346.3349 47.0804,346.8039 39.7964,347.9099 C32.5124,349.0129 24.8164,350.7669 18.0644,352.7129 C11.3194,354.6489 5.4864,356.7879 1.9974,358.4649 C4.1224,382.9929 9.5434,402.4279 15.6434,417.8739 C21.8184,433.3109 28.7504,444.7919 35.2084,453.3569 C48.2074,470.4669 59.1274,476.0149 61.7854,477.6589 C63.1394,478.4729 64.6104,478.6689 65.9964,478.4079 C67.3804,478.1379 68.6704,477.3969 69.7024,476.3969 C71.7594,474.3879 72.7734,471.2659 71.1774,468.1009 C70.4244,466.6079 67.6664,462.8669 64.2724,457.7059 C60.8854,452.5469 56.8814,445.9569 53.5714,438.9369 C50.2374,431.9289 47.6844,424.4719 46.9464,417.8189 C46.6184,414.4839 46.6944,411.3629 47.4204,408.5919 C48.1514,405.8199 49.4604,403.4139 51.4944,401.5159 C56.4344,396.9399 60.7624,397.1349 64.5194,399.2739 C68.2754,401.4249 71.4284,405.5549 74.1244,409.1469 C77.2934,413.4499 82.1254,413.6089 85.5964,411.6959 C89.0634,409.7749 91.3464,405.8209 89.5224,401.6289 C86.5144,394.5559 81.2354,385.8709 76.6564,376.9789 C72.0554,368.1109 68.3014,359.0419 67.6804,351.9009" id="Fill-74" fill="#0A1B45" mask="url(#upperspread-arms-mask-2)"/>
                                <path d="M69.03,360.8081 C64.335,372.7741 60.244,385.3471 56.673,398.2731 C56.673,398.2731 51.645,399.9221 48.768,405.1001 C47.337,407.6551 46.87,410.9601 46.81,413.6141 C46.732,416.2731 47.001,418.2901 47.001,418.2901 C37.826,422.1011 28.684,425.9961 19.557,429.9791 C19.557,429.9791 19.27,429.3521 18.752,428.2221 C18.242,427.0871 17.489,425.4491 16.642,423.3911 C15.79,421.3361 14.77,418.8881 13.711,416.1381 C12.678,413.3771 11.548,410.3381 10.458,407.1091 C8.302,400.6421 6.22,393.4441 4.823,386.4831 C3.401,379.5341 2.682,372.8191 2.938,367.5161 C3.608,356.7561 20.2,355.7321 36.559,356.8281 C44.74,357.3741 52.863,358.4171 58.934,359.2661 C65.007,360.1191 69.03,360.8081 69.03,360.8081" id="Fill-75" fill="#D7DBE2" mask="url(#upperspread-arms-mask-2)"/>
                                <path d="M69.03,360.8081 L3.399,367.7771 C1.655,354.9351 0.503,341.8121 0.156,328.3481 C0.167,327.1221 0.152,325.9091 0.187,324.6751 L0.325,320.9621 C0.426,318.4841 0.499,316.0191 0.635,313.5331 L1.214,306.0161 C1.323,304.7601 1.389,303.5201 1.538,302.2521 L1.992,298.4461 C3.059,288.3531 5.071,277.9901 7.714,267.5991 L9.957,259.7671 C10.305,258.4681 10.779,257.1531 11.244,255.8411 L12.64,251.9111 L14.057,247.9891 C14.526,246.6841 15.154,245.3711 15.701,244.0661 C16.842,241.4531 17.971,238.8461 19.171,236.2521 C21.922,231.0561 24.426,226.0291 27.943,220.6691 C31.372,215.4991 35.095,210.5941 39.076,206.0371 C39.469,205.6111 44.05,200.0861 51.443,193.4171 C58.809,186.7231 69.026,179.2101 79.422,173.2491 C89.809,167.2221 100.284,162.5361 108.101,159.4591 C110.057,158.6761 111.849,157.9841 113.435,157.4111 C115.022,156.8251 116.406,156.3041 117.543,155.9201 C119.817,155.1321 121.116,154.6831 121.116,154.6831 C129.921,151.8291 138.692,149.4671 147.427,147.4421 C170.045,142.3351 192.372,139.5111 214.538,138.0451 C227.635,137.7251 243.009,138.2691 254.976,143.4271 C266.928,148.5441 275.445,158.2301 274.452,175.1351 C273.601,189.7811 268.742,199.0551 258.963,204.9171 C249.2,210.8201 234.468,213.2261 214.241,215.1221 C197.544,215.8721 181.02,217.5671 165.18,220.5251 C147.95,223.9091 131.479,228.8551 117.487,235.8081 C110.518,239.2881 104.184,243.2401 98.86,247.6701 C96.19,249.8811 93.717,252.1831 91.539,254.6161 C90.476,255.8451 89.4,257.0671 88.452,258.3501 C87.936,258.9731 87.488,259.6261 87.041,260.2811 L86.35,261.2551 C86.116,261.5691 85.905,262.0041 85.678,262.3711 L82.939,266.9641 C82.143,268.6261 81.327,270.2851 80.49,271.9421 C80.04,272.7441 79.729,273.6701 79.363,274.5511 L78.278,277.2191 C77.49,278.9531 76.925,280.8731 76.296,282.7541 C73.818,290.3001 71.868,298.4201 70.684,306.9741 C69.466,315.5061 68.673,324.3251 68.471,333.3541 C68.273,342.3811 68.456,351.5541 69.03,360.8081" id="Fill-76" fill="#D7DBE2" mask="url(#upperspread-arms-mask-2)"/>
                                <path d="M199.4812,211.7134 L190.7542,145.2844 C204.9992,143.7474 219.1572,142.8924 233.2872,142.5764 C242.9882,142.1304 251.8862,145.7004 258.1332,151.6904 C264.4112,157.6794 267.9912,166.0464 267.7372,175.1524 C267.4822,184.2634 263.6912,192.4014 258.0402,198.3594 C252.3622,204.3164 244.7782,208.1174 236.2952,208.5084 C223.9222,209.0754 211.5962,210.1184 199.4812,211.7134" id="Fill-77" fill="#0A1B45" mask="url(#upperspread-arms-mask-2)"/>
                                <path d="M60.7,224.7363 L39.076,206.0373 C44.996,199.1773 51.461,193.1333 58.141,187.7793 C64.829,182.4283 71.747,177.7783 78.736,173.6813 C92.733,165.4993 106.976,159.4783 121.116,154.6823 L130.27,181.7643 C131.4,185.1213 130.763,188.7343 128.934,191.8313 C128.026,193.4073 126.813,194.8513 125.35,196.0963 C123.904,197.3823 122.179,198.4003 120.27,199.2263 C113.189,202.1953 106.259,205.5253 99.665,209.4163 C96.341,211.3173 93.157,213.4363 90.009,215.5973 C86.914,217.8323 83.849,220.1143 80.987,222.6303 C79.393,223.9433 77.761,225.0543 75.976,225.7993 C74.241,226.5943 72.426,227.1013 70.602,227.3033 C67.043,227.7743 63.368,227.0253 60.7,224.7363" id="Fill-78" fill="#0A1B45" mask="url(#upperspread-arms-mask-2)"/>
                                <path d="M38.572,251.4712 L43.505,253.5862 C36.767,264.8922 31.727,277.1832 27.918,289.7302 C24.11,302.2952 21.509,315.1492 19.721,328.0402 L7.094,327.3062 C10.123,313.9862 13.995,300.7592 19.095,287.9322 C24.195,275.1252 30.555,262.6852 38.572,251.4712" id="Fill-79" fill="#0A1B45" mask="url(#upperspread-arms-mask-2)"/>
                                <path d="M14.2429,366.626 L2.9379,367.517 C1.2609,354.378 0.1999,340.953 -0.0001,327.177 L19.7219,328.041 C17.1659,340.79 15.3909,353.698 14.2429,366.626" id="Fill-80" fill="#0A1B45" mask="url(#upperspread-arms-mask-2)"/>
                                <path d="M213.5779,191.189 L210.9019,162.171 C217.8489,161.529 224.7989,161.038 231.7529,160.691 L233.2139,189.795 C226.6539,190.122 220.1039,190.585 213.5779,191.189" id="Fill-81" fill="#FFF" mask="url(#upperspread-arms-mask-2)"/>
                                <polygon id="Fill-82" fill="#CC2935" mask="url(#upperspread-arms-mask-2)" points="230.4753 189.939 228.8493 160.844 231.7523 160.691 233.2133 189.795"/>
                                <polygon id="Fill-83" fill="#CC2935" mask="url(#upperspread-arms-mask-2)" points="224.8347 190.2891 222.8647 161.2151 225.7677 161.0241 227.5697 190.1091"/>
                                <polygon id="Fill-84" fill="#CC2935" mask="url(#upperspread-arms-mask-2)" points="219.2019 190.7031 216.8829 161.6551 219.7839 161.4331 221.9319 190.4951"/>
                                <polygon id="Fill-85" fill="#CC2935" mask="url(#upperspread-arms-mask-2)" points="213.5779 191.189 210.9019 162.171 213.8029 161.91 216.3039 190.943"/>
                                <path d="M223.8503,175.752 L222.8533,161.036 C225.8293,160.835 228.8063,160.656 231.7843,160.51 L232.5233,175.241 C229.6303,175.383 226.7393,175.556 223.8503,175.752" id="Fill-86" fill="#0A1B45" mask="url(#upperspread-arms-mask-2)"/>
                                <polygon id="Fill-87" fill="#FFF" mask="url(#upperspread-arms-mask-2)" points="231.3894 163.7339 230.7134 164.1039 230.6414 164.8569 230.0754 164.3439 229.3214 164.5119 229.6434 163.8229 229.2464 163.1749 230.0164 163.2609 230.5284 162.6919 230.6784 163.4349"/>
                                <polygon id="Fill-88" fill="#FFF" mask="url(#upperspread-arms-mask-2)" points="231.5515 166.8945 230.8795 167.2645 230.8095 168.0185 230.2445 167.5035 229.4955 167.6725 229.8165 166.9835 229.4215 166.3345 230.1865 166.4215 230.6945 165.8525 230.8445 166.5955"/>
                                <polygon id="Fill-89" fill="#FFF" mask="url(#upperspread-arms-mask-2)" points="231.7126 170.0557 231.0456 170.4257 230.9756 171.1787 230.4146 170.6647 229.6706 170.8327 229.9886 170.1437 229.5966 169.4947 230.3566 169.5827 230.8616 169.0137 231.0106 169.7567"/>
                                <polygon id="Fill-90" fill="#FFF" mask="url(#upperspread-arms-mask-2)" points="231.866 173.0396 231.203 173.4086 231.134 174.1626 230.576 173.6476 229.836 173.8166 230.151 173.1266 229.762 172.4786 230.517 172.5656 231.019 171.9976 231.168 172.7396"/>
                                <polygon id="Fill-91" fill="#FFF" mask="url(#upperspread-arms-mask-2)" points="228.9343 163.8643 228.2603 164.2393 228.1923 164.9933 227.6223 164.4843 226.8703 164.6563 227.1893 163.9663 226.7883 163.3193 227.5593 163.4023 228.0683 162.8293 228.2223 163.5703"/>
                                <polygon id="Fill-92" fill="#FFF" mask="url(#upperspread-arms-mask-2)" points="229.1121 167.0244 228.4421 167.3994 228.3751 168.1524 227.8081 167.6434 227.0591 167.8154 227.3771 167.1264 226.9791 166.4784 227.7451 166.5614 228.2511 165.9884 228.4041 166.7304"/>
                                <polygon id="Fill-93" fill="#FFF" mask="url(#upperspread-arms-mask-2)" points="229.2888 170.1846 228.6238 170.5586 228.5578 171.3126 227.9938 170.8036 227.2508 170.9746 227.5648 170.2856 227.1698 169.6376 227.9308 169.7216 228.4328 169.1486 228.5848 169.8906"/>
                                <polygon id="Fill-94" fill="#FFF" mask="url(#upperspread-arms-mask-2)" points="229.4558 173.1675 228.7948 173.5415 228.7288 174.2955 228.1688 173.7855 227.4308 173.9575 227.7428 173.2685 227.3498 172.6195 228.1048 172.7035 228.6038 172.1315 228.7568 172.8735"/>
                                <polygon id="Fill-95" fill="#FFF" mask="url(#upperspread-arms-mask-2)" points="226.4802 164.0078 225.8082 164.3828 225.7442 165.1368 225.1712 164.6318 224.4182 164.8098 224.7352 164.1178 224.3322 163.4728 225.1022 163.5498 225.6082 162.9738 225.7662 163.7148"/>
                                <polygon id="Fill-96" fill="#FFF" mask="url(#upperspread-arms-mask-2)" points="226.6726 167.167 226.0046 167.542 225.9416 168.296 225.3716 167.791 224.6246 167.969 224.9386 167.276 224.5376 166.631 225.3036 166.709 225.8066 166.132 225.9636 166.873"/>
                                <polygon id="Fill-97" fill="#FFF" mask="url(#upperspread-arms-mask-2)" points="226.865 170.3262 226.202 170.7012 226.139 171.4552 225.573 170.9492 224.831 171.1272 225.141 170.4352 224.743 169.7902 225.505 169.8682 226.004 169.2912 226.16 170.0322"/>
                                <polygon id="Fill-98" fill="#FFF" mask="url(#upperspread-arms-mask-2)" points="227.0466 173.3086 226.3876 173.6826 226.3246 174.4366 225.7626 173.9316 225.0246 174.1086 225.3336 173.4166 224.9376 172.7716 225.6936 172.8496 226.1906 172.2736 226.3466 173.0146"/>
                                <path d="M330.3064,192.5961 C329.8504,192.5961 329.4384,192.2821 329.3324,191.8191 C323.9664,168.3421 312.3384,154.1701 303.5294,146.4141 C293.9744,138.0041 285.5754,135.1071 285.4914,135.0781 C284.9684,134.9021 284.6864,134.3351 284.8634,133.8121 C285.0384,133.2891 285.6044,133.0071 286.1284,133.1831 C286.4744,133.2991 320.7544,145.3131 331.2824,191.3731 C331.4054,191.9111 331.0684,192.4481 330.5304,192.5711 C330.4544,192.5881 330.3804,192.5961 330.3064,192.5961" id="Fill-99" fill="#C0C6CE" mask="url(#upperspread-arms-mask-2)"/>
                                <path d="M347.8093,192.5961 C347.3533,192.5961 346.9413,192.2821 346.8353,191.8191 C336.3493,145.9381 342.1753,134.1441 342.4283,133.6641 C342.6873,133.1761 343.2913,132.9881 343.7803,133.2461 C344.2663,133.5031 344.4543,134.1031 344.2013,134.5911 C344.1193,134.7581 338.5633,146.6511 348.7853,191.3731 C348.9083,191.9111 348.5713,192.4481 348.0333,192.5711 C347.9573,192.5881 347.8833,192.5961 347.8093,192.5961" id="Fill-100" fill="#C0C6CE" mask="url(#upperspread-arms-mask-2)"/>
                            </g>
                        </g>
                    </g>
                    <g id="Helmet" transform="translate(257.000000, 126.901000)">
                        <path d="M75.863,121.1372 L70.876,121.1372 C47.643,121.1372 28.81,102.3042 28.81,79.0722 L28.81,59.3402 C28.81,41.5552 43.228,27.1372 61.013,27.1372 L66.607,27.1372 C84.392,27.1372 98.81,41.5552 98.81,59.3402 L98.81,98.1892 C98.81,110.8632 88.536,121.1372 75.863,121.1372" id="Fill-102" fill="#B18058"/>
                        <path d="M40.8103,85.6372 C40.8103,92.5412 35.2133,98.1372 28.3103,98.1372 C21.4073,98.1372 15.8103,92.5412 15.8103,85.6372 C15.8103,78.7332 21.4073,73.1372 28.3103,73.1372 C35.2133,73.1372 40.8103,78.7332 40.8103,85.6372" id="Fill-104" fill="#B18058"/>
                        <path d="M25.8777,81.8058 C25.8777,81.8058 31.4197,81.8058 31.4197,87.3478" id="Stroke-106" stroke="#000" stroke-width="3"/>
                        <path d="M27.8103,73.1372 L26.2743,73.1372 C20.4203,67.4452 18.1703,55.8452 17.4933,44.5862 C16.5653,29.1572 43.3523,16.1372 58.8093,16.1372 L76.7943,16.1372 L93.8103,42.1372 L54.5063,42.1372 C54.5063,59.1372 39.8103,73.1372 27.8103,73.1372" id="Fill-108" fill="#000"/>
                        <path d="M48.9714,41.4551 L73.2014,48.7521 C82.9484,51.6871 93.2294,46.1651 96.1634,36.4181 L98.4514,28.8191 C99.5944,25.0271 97.4454,21.0261 93.6534,19.8841 L73.0144,13.6691 C60.1774,9.8041 46.6374,17.0761 42.7724,29.9131 L42.7724,29.9131 C41.2964,34.8121 44.0724,39.9801 48.9714,41.4551" id="Fill-110" fill="#000"/>
                        <path d="M77.907,152.1372 L61.039,152.1372 C47.819,152.1372 33.952,144.9442 28.981,134.1312 C28.981,134.1312 28.81,125.8842 28.81,121.5372 L28.81,114.5162 C28.81,112.4972 30.535,110.8602 32.662,110.8602 L90.428,110.8602 C92.555,110.8602 94.28,112.4972 94.28,114.5162 L94.28,136.5912 C94.28,145.1772 86.95,152.1372 77.907,152.1372" id="Fill-112" fill="#000"/>
                        <path d="M103.865,125.6885 C100.341,134.2515 91.522,139.8435 81.768,139.8435 L74.149,139.8435 C51.385,139.8435 37.997,130.4385 24.281,119.4965 C24.281,119.4965 15.704,111.2465 9.657,95.5605 C2.089,75.9265 -2.783,47.0295 3.576,35.4005 C10.035,23.5895 27.199,0.0995 52.116,0.0995 C88.102,0.0995 114.658,19.5225 114.658,53.4285 L109.447,96.8325 C109.447,103.9185 106.748,118.6855 103.865,125.6885" id="Fill-114" fill="#D7DBE2"/>
                        <path d="M18.905,59.4417 C18.905,59.4417 29.97,17.4997 74.736,17.4997 C98.646,17.4997 111.898,36.2137 113.97,59.1567 L109.447,96.8317 C109.447,96.8317 97.494,143.3227 37.989,103.1337 C36.173,101.9077 35.048,99.9557 34.41,97.9387 L18.905,59.4417 Z" id="Fill-116" fill="#0A1B45"/>
                        <line x1="44.803" y1="46.514" x2="54.386" y2="74.137" id="Stroke-118" stroke="#FFF" stroke-width="7" stroke-linecap="round" stroke-linejoin="round" stroke-dasharray="12"/>
                    </g>
                </g>
            </g>
        </g>
        <g id="Space/Space Stuff" transform="translate(530.000000, 673.000000) scale(1.4545454545454546 1.4507042253521127)">
            <g id="Space/Space Stuff/Comet" stroke="none" stroke-width="1" fill="none" fill-rule="evenodd">
                <g id="Group-27" transform="translate(71.000000, 71.000000) rotate(-315.000000) translate(-71.000000, -71.000000) translate(25.000000, -7.000000)">
                    <path d="M32.1464466,131.154491 C32.1464466,123.5234 38.1910716,117.336309 45.6464466,117.336309 C53.1018216,117.336309 59.1464466,123.5234 59.1464466,131.154491 C59.1464466,138.785582 45.6464466,155.336309 45.6464466,155.336309 C45.6464466,155.336309 32.1464466,138.785582 32.1464466,131.154491 Z" id="Path" fill="#CC471D" fill-rule="nonzero"/>
                    <path d="M38.6464466,132.514989 C38.6464466,128.761389 41.7824466,125.714989 45.6464466,125.714989 C49.5104466,125.714989 52.6464466,128.761389 52.6464466,132.514989 C52.6464466,136.268589 45.6464466,142.714989 45.6464466,142.714989 C45.6464466,142.714989 38.6464466,136.268589 38.6464466,132.514989 Z" id="Path" fill="#E4D125" fill-rule="nonzero"/>
                    <path d="M30.9230769,131.479185 C25.7188552,131.479185 21.5,129.720734 21.5,124.064169 L21.5,39.9538316 C21.5,37.7215286 28.2879178,26.5876263 41.8637533,6.55212454 L41.8637555,6.55212607 C43.4127599,4.26607308 46.5216881,3.6685771 48.8077411,5.21758146 C49.332115,5.5728914 49.7842014,6.02460144 50.139948,6.54867914 C63.6477939,26.4481257 70.4329185,37.4754068 70.4953219,39.6305225 L70.5,39.9538316 L70.5,124.064169 C70.5,129.62486 66.4229448,131.323202 61.3406796,131.475017 L61.0769231,131.479185 L30.9230769,131.479185 Z" id="Path" fill="#C383F5"/>
                    <path d="M70.8535534,120.729708 L70.8535534,123.577569 C70.8535534,128.941122 66.7764982,130.579255 61.694233,130.725688 L61.4304765,130.729708 L31.2766303,130.729708 C26.0724086,130.729708 21.8535534,129.033597 21.8535534,123.577569 L21.8535534,120.729708 L70.8535534,120.729708 Z" id="Combined-Shape" fill="#8F3ED8"/>
                    <path d="M0.851767722,112.070346 C6.07565839,98.4601063 13.547994,87.1596034 21.8517677,76.7132034 L21.8517677,115.454851 L0.851767722,121.713203 L0.851767722,112.070346 Z" id="Rectangle" fill="#8134C8"/>
                    <path d="M70.1482323,112.070346 C75.3721229,98.4601063 82.8444586,87.1596034 91.1482323,76.7132034 L91.1482323,115.454851 L70.1482323,121.713203 L70.1482323,112.070346 Z" id="Rectangle" fill="#8134C8" transform="translate(80.648232, 99.213203) scale(-1, 1) translate(-80.648232, -99.213203)"/>
                    <circle id="Oval" fill="#7B34BB" cx="46" cy="53.958" r="13"/>
                    <circle id="Oval" fill="#551D89" cx="46" cy="54.665" r="9.5"/>
                </g>
            </g>
        </g>
    </g>
</svg>
